<?xml version="1.0" encoding="iso-8859-1"?>
<!-- Generator: Adobe Illustrator 19.0.0, SVG Export Plug-In . SVG Version: 6.00 Build 0)  -->
<svg xmlns="http://www.w3.org/2000/svg" xmlns:xlink="http://www.w3.org/1999/xlink" version="1.1" id="Capa_1" x="0px" y="0px" viewBox="0 0 511.999 511.999" style="enable-background:new 0 0 511.999 511.999;" xml:space="preserve" width="512px" height="512px">
<g>
	<g>
		<path d="M476.919,141.304l-0.38-0.656c-0.525-1.088-1.13-2.131-1.806-3.121L403.504,14.38C398.373,5.51,388.821,0,378.574,0    H133.437c-10.263,0-19.823,5.523-24.952,14.417l-72.39,125.586c-0.652,1.132-1.122,2.316-1.454,3.519    c-1.019,2.751-1.579,5.724-1.579,8.826v324.365c0,19.456,15.829,35.285,35.285,35.285h375.304    c19.456,0,35.285-15.829,35.285-35.285V151.159c0-0.436-0.013-0.868-0.036-1.299C479.104,146.974,478.477,143.998,476.919,141.304    z M271.518,30.011h106.358l56.033,96.873H271.518V30.011z M134.136,30.011h107.371v96.873H78.296L134.136,30.011z     M448.925,476.714c0,2.908-2.366,5.274-5.274,5.274H68.347c-2.908,0-5.274-2.366-5.274-5.274V156.895h385.852V476.714z" fill="#FFFFFF"/>
	</g>
</g>
<g>
	<g>
		<path d="M278.218,319.442l28.196-28.196c5.86-5.859,5.86-15.361,0-21.221c-5.859-5.859-15.361-5.859-21.221,0l-28.196,28.196    l-28.196-28.196c-5.859-5.859-15.361-5.859-21.221,0c-5.86,5.859-5.86,15.361,0,21.221l28.196,28.196l-28.196,28.196    c-5.858,5.859-5.858,15.361,0.002,21.221c2.93,2.93,6.77,4.396,10.61,4.396s7.681-1.466,10.61-4.396l28.196-28.196l28.196,28.196    c2.93,2.93,6.77,4.396,10.61,4.396c3.839,0,7.681-1.466,10.61-4.396c5.86-5.859,5.86-15.361,0-21.221L278.218,319.442z" fill="#FFFFFF"/>
	</g>
</g>
<g>
</g>
<g>
</g>
<g>
</g>
<g>
</g>
<g>
</g>
<g>
</g>
<g>
</g>
<g>
</g>
<g>
</g>
<g>
</g>
<g>
</g>
<g>
</g>
<g>
</g>
<g>
</g>
<g>
</g>
</svg>
