<?xml version="1.0" encoding="iso-8859-1"?>
<!-- Generator: Adobe Illustrator 19.0.0, SVG Export Plug-In . SVG Version: 6.00 Build 0)  -->
<svg xmlns="http://www.w3.org/2000/svg" xmlns:xlink="http://www.w3.org/1999/xlink" version="1.1" id="Layer_1" x="0px" y="0px" viewBox="0 0 512 512" style="enable-background:new 0 0 512 512;" xml:space="preserve" width="512px" height="512px">
<g>
	<g>
		<g>
			<path d="M149.333,224c2.729,0,5.458-1.042,7.542-3.125c4.167-4.167,4.167-10.917,0-15.083L128,176.917v-59.583     c0-5.896-4.771-10.667-10.667-10.667c-5.896,0-10.667,4.771-10.667,10.667v64c0,2.833,1.125,5.542,3.125,7.542l32,32     C143.875,222.958,146.604,224,149.333,224z" fill="#FFFFFF"/>
			<path d="M508.875,259.125l-85.333-85.333c-2-2-4.708-3.125-7.542-3.125h-74.667v-32c0-5.896-4.771-10.667-10.667-10.667H221.712     c-19.465-37.932-58.901-64-104.379-64C52.646,64,0,116.635,0,181.333c0,53.592,36.165,98.806,85.333,112.784v68.549     c0,23.531,19.146,42.667,42.667,42.667h1.078C134.034,429.647,155.57,448,181.333,448c25.763,0,47.299-18.353,52.255-42.667     h130.156C368.701,429.647,390.237,448,416,448c25.763,0,47.299-18.353,52.255-42.667h33.078c5.896,0,10.667-4.771,10.667-10.667     v-128C512,263.833,510.875,261.125,508.875,259.125z M21.333,181.333c0-52.938,43.063-96,96-96s96,43.063,96,96s-43.063,96-96,96     S21.333,234.271,21.333,181.333z M181.333,426.667c-17.646,0-32-14.354-32-32s14.354-32,32-32c17.646,0,32,14.354,32,32     S198.979,426.667,181.333,426.667z M320,384h-86.411c-4.956-24.314-26.492-42.667-52.255-42.667     c-25.763,0-47.299,18.353-52.255,42.667H128c-11.771,0-21.333-9.573-21.333-21.333v-64.54c3.518,0.319,7.066,0.54,10.667,0.54     c64.688,0,117.333-52.635,117.333-117.333c0-11.104-1.654-21.811-4.549-32H320V384z M416,426.667c-17.646,0-32-14.354-32-32     s14.354-32,32-32c17.646,0,32,14.354,32,32S433.646,426.667,416,426.667z M490.667,384h-22.411     c-4.956-24.314-26.492-42.667-52.255-42.667c-25.763,0-47.299,18.353-52.255,42.667h-22.411V192h70.25l79.083,79.083V384z" fill="#FFFFFF"/>
			<path d="M384,224c0-5.896-4.771-10.667-10.667-10.667c-5.896,0-10.667,4.771-10.667,10.667v64     c0,5.896,4.771,10.667,10.667,10.667h85.333c5.896,0,10.667-4.771,10.667-10.667s-4.771-10.667-10.667-10.667H384V224z" fill="#FFFFFF"/>
		</g>
	</g>
</g>
<g>
</g>
<g>
</g>
<g>
</g>
<g>
</g>
<g>
</g>
<g>
</g>
<g>
</g>
<g>
</g>
<g>
</g>
<g>
</g>
<g>
</g>
<g>
</g>
<g>
</g>
<g>
</g>
<g>
</g>
</svg>
